<?xml version="1.0" encoding="UTF-8"?>
<svg id="Camada_2" data-name="Camada 2" xmlns="http://www.w3.org/2000/svg" viewBox="0 0 57.39 50.1">
  <defs>
    <style>
      .cls-1 {
        fill: #db8237;
      }

      .cls-1, .cls-2 {
        fill-rule: evenodd;
      }

      .cls-3 {
        font-family: FuturaBT-HeavyItalic, 'Futura Hv BT';
        font-size: 21px;
        letter-spacing: .05em;
      }

      .cls-3, .cls-4, .cls-5 {
        font-weight: 800;
      }

      .cls-3, .cls-4, .cls-5, .cls-6, .cls-2 {
        fill: #fbfbfb;
      }

      .cls-3, .cls-6 {
        font-style: italic;
      }

      .cls-4 {
        letter-spacing: .1em;
      }

      .cls-4, .cls-5 {
        font-family: FuturaBT-Heavy, 'Futura Hv BT';
        font-size: 15.69px;
      }

      .cls-5 {
        letter-spacing: .1em;
      }

      .cls-6 {
        font-family: FuturaBT-BookItalic, 'Futura Bk BT';
        font-size: 12.84px;
        letter-spacing: .1em;
      }
    </style>
  </defs>
  <g id="Camada_2-2" data-name="Camada 2">
    <g id="Caixa">
      <text class="cls-6" transform="translate(.93 11.01) scale(1.1 1)"><tspan x="0" y="0">SIMULA</tspan></text>
      <text class="cls-3" transform="translate(0 30.65) scale(.98 1)"><tspan x="0" y="0">CRED</tspan></text>
      <g id="X_LOGO">
        <text class="cls-4" transform="translate(.12 46.39) scale(.96 1)"><tspan x="0" y="0">CAI</tspan></text>
        <polygon class="cls-2" points="34.82 41.04 39.28 41.04 42.34 46.32 37.88 46.32 34.82 41.04 34.82 41.04"/>
        <path class="cls-1" d="m35.28,40.23h4.61l4.01-5.26h-4.61l-4.01,5.26h0Zm-4.61,6.13h4.61l4.01-5.32h-4.61l-4.01,5.32Z"/>
        <polygon class="cls-2" points="32.33 34.9 36.64 34.9 39.59 40.23 35.28 40.23 32.33 34.9 32.33 34.9"/>
        <text class="cls-5" transform="translate(44.7 46.39) scale(.96 1)"><tspan x="0" y="0">A</tspan></text>
      </g>
    </g>
  </g>
</svg>